<svg width="440" height="148" xmlns="http://www.w3.org/2000/svg" xmlns:xlink="http://www.w3.org/1999/xlink" overflow="hidden"><defs><clipPath id="clip0"><rect x="0" y="0" width="440" height="148"/></clipPath><clipPath id="clip1"><rect x="0" y="0" width="440" height="147"/></clipPath><clipPath id="clip2"><rect x="0" y="0" width="440" height="147"/></clipPath><linearGradient x1="56.4033" y1="0.0132075" x2="56.4033" y2="88.5524" gradientUnits="userSpaceOnUse" spreadMethod="pad" id="fill3"><stop offset="0" stop-color="#53C4FE" stop-opacity="1"/><stop offset="1" stop-color="#0D84F4" stop-opacity="1"/></linearGradient><linearGradient x1="9.30702" y1="9.52708" x2="9.30702" y2="79.1852" gradientUnits="userSpaceOnUse" spreadMethod="pad" id="fill4"><stop offset="0" stop-color="#F9B93B" stop-opacity="1"/><stop offset="1" stop-color="#FA7535" stop-opacity="1"/></linearGradient><linearGradient x1="45.7686" y1="10.3222" x2="45.7686" y2="78.2287" gradientUnits="userSpaceOnUse" spreadMethod="pad" id="fill5"><stop offset="0" stop-color="#AEF922" stop-opacity="1"/><stop offset="1" stop-color="#62BB0D" stop-opacity="1"/></linearGradient><linearGradient x1="43.1638" y1="28.3949" x2="43.1638" y2="60.1487" gradientUnits="userSpaceOnUse" spreadMethod="pad" id="fill6"><stop offset="0" stop-color="#FFFFFF" stop-opacity="1"/><stop offset="0.6" stop-color="#FFFFFF" stop-opacity="1"/><stop offset="1" stop-color="#E5F6D2" stop-opacity="1"/></linearGradient></defs><g clip-path="url(#clip0)"><g clip-path="url(#clip1)"><g clip-path="url(#clip2)"><path d="M211.038 72.9883 218.593 37.0454C219.18 34.038 217.42 31.0305 213.899 31.0305L205.17 31.0305 203.996 36.0918 210.818 36.0918C212.358 36.0918 212.652 37.0454 212.358 38.2924L204.95 73.2818C204.069 77.3895 206.417 78.6365 210.818 78.6365L220.794 78.6365 222.187 74.0886 211.991 74.0886C211.331 74.0886 210.818 73.7219 211.038 72.9883M182.944 64.7728 147.441 64.7728 146.267 68.9539 181.77 68.9539ZM201.575 11.0785 195.267 11.0785C192.48 14.6728 187.051 20.3943 183.751 21.788L179.716 21.788C180.596 20.3943 185.218 11.0785 185.218 11.0785L178.689 11.0785 173.261 21.4946C169.447 18.9273 167.76 14.5261 166.366 11.0785L159.397 11.0785C160.278 13.6458 161.891 18.9273 164.972 21.568L155.363 21.568 154.116 26.776 169.813 26.776C168.86 28.3898 167.76 29.8568 166.513 31.2505L150.742 31.2505 149.495 36.2385 162.038 36.2385C158.004 40.4197 152.429 43.7205 148.101 43.7205L146.854 49.3687C146.854 49.3687 153.602 48.1217 156.903 46.4346L154.996 55.3103C154.409 57.951 155.07 59.9315 157.784 59.9315L184.117 59.9315C186.245 59.9315 186.831 61.3986 186.318 63.5992L184.777 69.3941C183.971 72.1815 182.65 73.7219 180.303 73.7219L156.757 73.7219 155.143 78.4898 179.276 78.4898C184.777 78.4898 188.665 77.9763 190.132 71.8881L193.066 58.8312C193.506 56.9241 191.746 55.3103 190.059 55.3103L191.746 46.8747C193.14 47.975 194.753 48.7819 196.441 49.3687L198.348 45.3343C194.827 43.6472 190.792 39.9795 189.692 36.3852L199.741 36.3852 200.988 31.1772 173.995 31.1772 176.782 26.776 198.935 26.776 200.108 21.7147 192.406 21.7147C195.854 18.4871 198.935 14.8928 201.575 11.0785M185.731 50.1022 184.704 54.9435 161.011 54.9435 162.845 46.8014 183.31 46.8014C186.685 46.8747 185.878 49.222 185.731 50.1022M183.457 36.4586C184.117 38.3658 185.071 40.1262 186.391 41.6667L164.532 41.6667C166.439 40.1262 168.2 38.3658 169.74 36.4586ZM144.58 10.565C143.186 10.565 140.179 10.7117 138.785 11.5186 138.785 11.2252 138.785 10.9318 138.859 10.6384L133.064 10.6384 119.64 71.1545C119.273 72.8416 118.76 73.2818 118.32 73.2818L115.532 73.2818 114.359 78.4898 119.86 78.4898C121.107 78.4898 124.115 77.6096 125.142 73.0617L128.956 55.457 137.318 55.457 133.871 71.4479C133.65 72.4749 133.504 73.3551 132.844 73.3551L129.029 73.3551 127.929 78.5632 132.844 78.5632C133.944 78.5632 137.978 79.0033 139.152 73.3551L151.622 16.58C152.576 11.812 147.954 10.565 144.58 10.565M138.492 49.9555 130.13 49.9555 133.284 35.285 141.646 35.285ZM145.607 17.3868 142.82 30.3703 134.457 30.3703 137.318 17.0934C138.272 16.2132 141.206 15.8464 142.013 15.8464 142.746 15.8464 145.827 16.1398 145.607 17.3868M257.984 40.2729 243.166 40.2729 247.714 20.0275 241.773 20.0275 237.225 40.3463 221.967 40.3463 220.72 45.4077 235.978 45.4077 228.789 78.4898 234.878 78.4898 242.139 45.1876 256.737 45.1876ZM217.713 25.529 222.334 23.1817C220.5 20.8344 218.74 18.4138 217.126 15.8464 216.026 14.1593 215.146 12.3988 214.339 10.565L208.47 10.565C208.47 10.565 210.671 14.9662 211.698 16.7267 212.725 18.4871 217.713 25.529 217.713 25.529M260.111 72.2548 270.747 22.4482C271.481 17.6803 272.801 12.3255 262.825 12.3255L232.677 12.3255 231.503 17.2401 258.937 17.2401C264.952 17.2401 265.099 19.4407 264.145 23.7685L253.509 73.4285C252.996 76.4359 253.729 78.4898 258.791 78.4898 259.084 78.4898 269.867 78.3431 270.967 78.4898L272.287 73.5752 261.431 73.5752C260.478 73.5752 259.817 73.4285 260.111 72.2548M361.411 41.52 361.631 40.4197 355.91 40.4197 355.69 41.0798C354.296 45.7744 351.949 50.1022 348.868 53.9166 347.548 55.6771 346.007 57.2908 344.393 58.7579L344.173 58.9779 342.926 66.5333 344.613 65.5064C344.687 65.433 357.67 57.5842 361.411 41.52M295.54 18.7805 297.374 10.4917 292.093 10.4917 290.112 19.5141 295.394 19.5141ZM307.203 55.5304 307.35 54.8702 315.199 19.8075C316.593 18.1937 318.647 17.3135 320.774 17.3135L333.831 17.3135C334.711 17.2401 335.591 17.4602 336.325 17.9003 336.838 18.2671 337.058 18.9273 336.985 19.5141 336.985 20.0275 336.911 20.4677 336.765 20.9811L328.989 55.5304 334.784 55.5304 342.56 20.4677C342.78 19.7341 342.853 19.0006 342.853 18.2671 342.926 16.5066 342.046 14.8928 340.506 13.9393 338.965 12.9857 336.911 12.6189 334.271 12.6189L320.627 12.6189C318.867 12.6189 317.326 12.6923 316.153 13.2057L316.079 12.5455 310.798 12.5455 301.335 55.5304ZM320.554 72.4749C320.554 72.3282 320.554 72.1815 320.627 72.0348L325.615 45.9945 323.194 45.9945 328.182 21.1278 322.241 21.1278 317.253 46.728C316.373 49.1487 315.272 51.4959 314.025 53.6965 311.825 57.6576 308.45 62.4989 303.829 66.0198 300.675 68.5138 297.227 70.5677 293.633 72.2548 292.753 72.6216 291.873 72.9883 290.919 73.2818L290.039 73.5018 289.525 73.5752 287.985 78.9299 289.379 78.7099C289.452 78.7099 306.397 76.0692 316.886 60.8118L314.539 72.2548C314.392 72.9883 314.319 73.6485 314.319 74.3821 314.245 75.5557 314.685 76.7293 315.566 77.5362 316.593 78.2698 317.913 78.6365 319.16 78.5632L338.232 78.5632 338.378 77.903 339.332 73.6485 322.534 73.6485C320.847 73.5752 320.554 73.2818 320.554 72.4749M410.558 72.8416C408.431 70.9345 403.736 66.0198 400.435 57.0708L400.215 56.4839 399.408 56.4839 404.249 34.6981 398.455 34.6981 393.687 55.8238C393.246 57.0708 392.66 58.3178 391.999 59.4181 390.166 62.4255 387.818 65.0662 385.104 67.1935 382.39 69.3207 379.383 71.0078 376.155 72.1081 374.908 72.5482 373.661 72.8416 372.341 73.0617L371.754 73.1351 370.214 78.5632 371.461 78.4898C371.534 78.4898 387.818 77.7563 396.767 62.6456 403.002 75.7024 409.017 78.2698 409.311 78.3431L410.044 78.6365 412.465 74.162 411.805 73.7219C411.658 73.7952 411.291 73.5018 410.558 72.8416M294.807 49.222 295.1 49.4421 301.115 49.3687 300.088 47.975C300.088 47.975 299.281 46.8014 298.181 45.0409 296.934 42.987 295.98 40.8598 295.247 38.5858L295.027 37.9257 293.193 37.999 300.455 29.8568C300.455 29.7835 303.462 27.2161 303.536 24.4287 303.536 23.4018 303.022 22.5215 302.142 22.0081 300.895 21.4213 299.428 21.1278 298.034 21.2012L278.376 21.2012 277.422 26.1158 296.421 26.1158 274.635 49.5888 272.287 59.3447 285.198 45.9945 277.936 78.4165 283.804 78.4165 283.951 77.7563 291.433 43.6472C293.12 47.6816 294.733 49.1487 294.807 49.222M388.992 12.9123 388.038 17.5335 403.589 17.5335C401.462 21.788 399.041 25.2356 397.941 26.1158 396.767 26.4092 395.594 26.776 394.42 27.2161L394.347 26.4092 389.065 26.4092 381.143 62.1321 386.645 62.1321 386.791 61.4719 392.88 33.4511C393.613 32.5709 394.567 31.9107 395.667 31.4706 397.281 31.0305 398.968 30.8104 400.655 30.8838L409.898 30.8838C411.731 31.0305 411.805 31.3972 411.878 32.4242 411.878 32.7176 411.805 33.011 411.805 33.3044L405.79 62.2788 411.365 62.2788 417.233 34.4047C417.526 33.3778 417.673 32.2775 417.746 31.2505 417.82 29.7101 417.233 28.2431 416.059 27.2895 414.739 26.4092 413.198 25.8958 411.585 26.0425L404.763 26.0425C405.276 25.3823 405.79 24.5754 406.303 23.6218 407.33 21.9347 408.357 19.8808 409.384 17.6803L423.541 17.6803 423.688 16.9467 424.495 13.059ZM382.023 45.481 383.05 44.0873 376.009 44.0873 369.407 52.7429 372.634 36.9721 384.444 36.9721 385.544 32.2775 373.074 32.2775 374.541 25.0889 386.571 25.0889 386.718 24.4287 387.598 20.1743 375.568 20.1743 377.549 10.565 371.827 10.565 367.28 32.2775 361.045 32.2775 364.565 15.4797 358.991 15.4797 355.47 32.2775 346.741 32.2775 345.64 36.9721 366.986 36.9721 362.218 59.2714 364.345 59.2714C360.751 64.1126 356.057 68.0004 350.702 70.7878 349.015 71.5946 347.254 72.3282 345.494 72.8416 344.834 73.0617 344.173 73.2084 343.513 73.2818L342.853 73.3551 341.826 78.4165 342.926 78.4165C343.073 78.4165 358.33 78.1231 371.607 59.4914 375.788 53.6232 382.023 45.481 382.023 45.481" fill="#424242" fill-rule="nonzero" fill-opacity="1" transform="matrix(1.00281 0 0 1 10.5116 34.2371)"/><path d="M93.4531 53.0364C99.7614 46.4346 99.0279 40.3463 93.3797 35.1382 85.0909 27.3628 75.2616 21.0545 64.9921 15.1129 55.0162 9.31802 44.4533 4.55008 33.5971 0.662377 27.4355-1.46486 20.7603 1.68932 18.5598 7.85096 18.3397 8.43779 18.193 9.02461 18.1196 9.61143 13.8652 32.4975 13.8652 55.9705 18.0463 78.8566 19.2199 85.2383 25.3816 89.4928 31.7633 88.3191 32.3501 88.1724 33.0103 88.0257 33.5971 87.8056 44.6734 83.8446 55.3096 78.8566 65.4323 72.915 75.555 67.1201 85.6043 61.1785 93.4531 53.0364Z" fill="url(#fill3)" fill-rule="nonzero" transform="matrix(1.00281 0 0 1 10.5116 34.2371)"/><path d="M18.0463 10.4183C17.7529 10.345 17.4595 10.2716 17.166 10.1249 10.9311 8.21773 5.42958 10.4183 2.93558 17.1668-0.145239 25.6024 0.00146706 35.0649 0.00146706 44.3074 0.00146706 53.5498-0.0718859 62.8657 2.86223 71.3012 5.57629 79.0766 10.8577 80.2503 17.0927 78.3431 17.3861 78.2698 18.193 77.903 18.413 77.8296 16.4325 66.9001 14.8921 55.8971 14.8921 44.3807 15.0388 33.011 15.9924 21.6413 18.0463 10.4183Z" fill="url(#fill4)" fill-rule="nonzero" transform="matrix(1.00281 0 0 1 10.5116 34.2371)"/><path d="M17.9729 10.345C13.9385 32.791 13.8652 55.8238 17.8996 78.2698 27.7289 75.2623 37.3381 71.4479 46.5806 66.8267 55.8964 62.2055 64.8454 57.2908 72.4742 51.2025 78.1957 46.6547 77.6089 41.3732 72.4008 37.1188 64.6987 30.8838 55.603 26.0425 46.0671 21.4213 37.118 16.9467 27.6555 13.2791 17.9729 10.345Z" fill="url(#fill5)" fill-rule="nonzero" transform="matrix(1.00281 0 0 1 10.5116 34.2371)"/><path d="M28.0223 30.2236C28.0223 30.2236 27.0687 31.6173 27.0687 44.234 27.0687 56.8507 28.0223 58.3911 28.0223 58.3911 28.3157 59.9315 29.0492 60.445 30.7363 60.0782 30.7363 60.0782 33.5971 59.6381 44.9668 53.9166 56.3365 48.1951 58.2437 45.9945 58.2437 45.9945 59.4907 44.7475 59.7841 43.9406 58.2437 42.6202 58.2437 42.6202 55.1629 39.7595 44.9668 34.5514 34.9175 29.4167 30.7363 28.5365 30.7363 28.5365 29.2693 28.0964 28.389 28.5365 28.0223 30.2236Z" fill="url(#fill6)" fill-rule="nonzero" transform="matrix(1.00281 0 0 1 10.5116 34.2371)"/></g></g></g></svg>